<?xml version='1.0' encoding='iso-8859-1'?>
<svg version="1.1" xmlns="http://www.w3.org/2000/svg" viewBox="0 0 279.956 279.956" xmlns:xlink="http://www.w3.org/1999/xlink" enable-background="new 0 0 279.956 279.956">
  <g>
    <path d="m245.743,128.176c0,0-65.578-26.333-66.831-26.704 15.21-13.031 12.098-39.515 4.764-55.065-2.105-4.464-8.12-5.25-11.291-1.47-8.129,9.689-17.737,15.166-17.737,15.166s7.62-22.37-7.501-45.282c-4.403-6.674-11.098-11.195-16.841-14.088-4.537-2.285-9.909,1.055-9.815,6.134 0.393,21.666-15.281,34.541-22.876,45.933-9.987,14.98-9.342,37.025 4.539,48.609-1.324,0.386-67.606,26.78-67.606,26.78-5.103,2.048-9.572,8.224-9.572,13.724v12.5c0,5.5 5.083,10.544 10.583,10.544h5.417v102.956c0,6.6 5.733,12.044 12.333,12.044h174c6.6,0 11.667-5.444 11.667-12.044v-102.957h6.083c5.5,0 9.917-5.044 9.917-10.544v-12.5c0.002-5.499-4.13-11.681-9.233-13.736zm-154.765,102.78h-26v-33h26v33zm74,33h-50v-66h50v66zm50-33h-26v-33h26v33zm-74.706-163.361c0,0 9.844,14.361 13.077,31.361h-26.152c3.232-17 13.075-31.361 13.075-31.361z"/>
  </g>
</svg>
